# xmcd
#
# Track frame offsets: 
#        150
#        5459
#        22428
#        38793
#        55140
#        84534
#
# Disc length: 2468 seconds
#
# Revision: 0
# Processed by: cddbd v1.5.1PL2 Copyright (c) Steve Scherf et al.
# Submitted via: ExactAudioCopy v0.95b3
#
DISCID=4609a206
DTITLE=Various Artist - Smash Hits Christmas
DYEAR=2000
DGENRE=Pop/Rock
TTITLE0=a1 - White Christmas (Acapella)
TTITLE1=Mickey Graham - Think About You
TTITLE2=Tom Jones and Cerys from Catatonia - Baby It's Cold Outside (At 
TTITLE2=The Speakeasy)
TTITLE3=Girls@Play - Outa My Head
TTITLE4=Moby - Porcelain
TTITLE5=CD-Rom Data
EXTD=
EXTT0=
EXTT1=
EXTT2=
EXTT3=
EXTT4=
EXTT5=
PLAYORDER=
